<svg id="SvgjsSvg1001" width="288" height="288" xmlns="http://www.w3.org/2000/svg" version="1.1" xmlns:xlink="http://www.w3.org/1999/xlink" xmlns:svgjs="http://svgjs.com/svgjs"><defs id="SvgjsDefs1002"></defs><g id="SvgjsG1008"><svg xmlns="http://www.w3.org/2000/svg" width="288" height="288" viewBox="0 0 256 256"><g style="stroke:none;stroke-width:0;stroke-dasharray:none;stroke-linecap:butt;stroke-linejoin:miter;stroke-miterlimit:10;fill:none;fill-rule:nonzero;opacity:1" fill="none" stroke-miterlimit="10" stroke-width="0" transform="translate(1.964 1.964) scale(2.8008)"><path fill="#6666ff" d="M 83.104 35.277 c -0.041 -0.039 -0.089 -0.067 -0.133 -0.102 c -0.004 -0.003 -0.007 -0.008 -0.011 -0.011 l -9.805 -7.688 V 5.025 C 73.156 2.254 70.902 0 68.131 0 H 21.87 c -2.771 0 -5.026 2.254 -5.026 5.025 V 27.48 l -9.802 7.686 c -0.031 0.024 -0.054 0.055 -0.083 0.081 c -0.068 0.052 -0.138 0.101 -0.2 0.163 c -1.218 1.218 -1.889 2.837 -1.889 4.56 v 43.58 C 4.87 87.106 7.763 90 11.319 90 h 67.361 c 3.556 0 6.449 -2.894 6.449 -6.449 v -43.58 C 85.13 38.202 84.392 36.492 83.104 35.277 z M 78.584 36.816 l -5.428 4.707 V 32.56 L 78.584 36.816 z M 21.87 4 h 46.261 c 0.565 0 1.025 0.46 1.025 1.025 v 39.966 L 46.771 64.402 c -1.01 0.874 -2.531 0.874 -3.54 0.001 L 20.844 44.992 V 5.025 C 20.844 4.46 21.304 4 21.87 4 z M 16.844 32.563 v 8.96 l -5.426 -4.705 L 16.844 32.563 z M 81.13 83.551 c 0 1.351 -1.099 2.449 -2.449 2.449 H 11.319 c -1.351 0 -2.449 -1.099 -2.449 -2.449 v -43.58 c 0 -0.021 0.006 -0.041 0.006 -0.062 L 40.61 67.425 c 1.251 1.085 2.82 1.628 4.39 1.628 s 3.139 -0.543 4.391 -1.628 l 31.733 -27.516 c 0.001 0.021 0.006 0.041 0.006 0.062 V 83.551 z" class="color000 svgShape"></path><path fill="#6666ff" d="M63.058 13.698H26.942c-1.104 0-2-.896-2-2s.896-2 2-2h36.115c1.104 0 2 .896 2 2S64.162 13.698 63.058 13.698zM63.058 23.45H26.942c-1.104 0-2-.896-2-2s.896-2 2-2h36.115c1.104 0 2 .896 2 2S64.162 23.45 63.058 23.45zM63.058 33.202H26.942c-1.104 0-2-.896-2-2s.896-2 2-2h36.115c1.104 0 2 .896 2 2S64.162 33.202 63.058 33.202zM47.067 42.954H26.942c-1.104 0-2-.896-2-2s.896-2 2-2h20.125c1.104 0 2 .896 2 2S48.172 42.954 47.067 42.954zM60.07 81.668H45c-1.104 0-2-.896-2-2s.896-2 2-2h15.07c1.104 0 2 .896 2 2S61.175 81.668 60.07 81.668zM75.374 81.668h-6.923c-1.104 0-2-.896-2-2s.896-2 2-2h6.923c1.104 0 2 .896 2 2S76.479 81.668 75.374 81.668z" class="color000 svgShape"></path></g></svg></g></svg>